<svg width="76" height="97" viewBox="0 0 76 97" fill="none" xmlns="http://www.w3.org/2000/svg">
<path fill-rule="evenodd" clip-rule="evenodd" d="M0 57.3284C0 56.2239 0.89543 55.3284 2 55.3284H20C20.3253 55.3284 20.6458 55.4078 20.9335 55.5597L38 64.567L55.0665 55.5597C55.3542 55.4078 55.6747 55.3284 56 55.3284H74C75.1046 55.3284 76 56.2239 76 57.3284V94.8284C76 95.933 75.1046 96.8284 74 96.8284H2C0.89543 96.8284 0 95.933 0 94.8284V57.3284ZM4 59.3284V92.8284H72V59.3284H56.4954L38.9335 68.5972C38.3494 68.9055 37.6506 68.9055 37.0665 68.5972L19.5046 59.3284H4Z" fill="url(#paint0_linear_13_457)"/>
<path fill-rule="evenodd" clip-rule="evenodd" d="M37.4999 46.3284C49.0979 46.3284 58.4999 36.9264 58.4999 25.3284C58.4999 13.7305 49.0979 4.32843 37.4999 4.32843C25.9019 4.32843 16.4999 13.7305 16.4999 25.3284C16.4999 36.9264 25.9019 46.3284 37.4999 46.3284ZM37.4999 50.3284C51.307 50.3284 62.4999 39.1355 62.4999 25.3284C62.4999 11.5213 51.307 0.32843 37.4999 0.32843C23.6928 0.32843 12.4999 11.5213 12.4999 25.3284C12.4999 39.1355 23.6928 50.3284 37.4999 50.3284Z" fill="url(#paint1_linear_13_457)"/>
<path fill-rule="evenodd" clip-rule="evenodd" d="M9 76.3284C9 75.2239 9.89543 74.3284 11 74.3284H25C26.1046 74.3284 27 75.2239 27 76.3284C27 77.433 26.1046 78.3284 25 78.3284H11C9.89543 78.3284 9 77.433 9 76.3284Z" fill="url(#paint2_linear_13_457)"/>
<defs>
<linearGradient id="paint0_linear_13_457" x1="38" y1="55.3284" x2="38" y2="96.8284" gradientUnits="userSpaceOnUse">
<stop stop-color="#0069CD"/>
<stop offset="1" stop-color="#6002E0"/>
</linearGradient>
<linearGradient id="paint1_linear_13_457" x1="37.4999" y1="0.32843" x2="37.4999" y2="50.3284" gradientUnits="userSpaceOnUse">
<stop stop-color="#0069CD"/>
<stop offset="1" stop-color="#6002E0"/>
</linearGradient>
<linearGradient id="paint2_linear_13_457" x1="18" y1="74.3284" x2="18" y2="78.3284" gradientUnits="userSpaceOnUse">
<stop stop-color="#0069CD"/>
<stop offset="1" stop-color="#6002E0"/>
</linearGradient>
</defs>
</svg>
